<svg id="レイヤー_1" data-name="レイヤー 1" xmlns="http://www.w3.org/2000/svg" xmlns:xlink="http://www.w3.org/1999/xlink" viewBox="0 0 370 100"><defs><style>.cls-1{fill:#fff;}.cls-2{fill:url(#名称未設定グラデーション_25);}.cls-3{fill:url(#名称未設定グラデーション_25-2);}.cls-4{fill:url(#名称未設定グラデーション_25-3);}</style><linearGradient id="名称未設定グラデーション_25" x1="70.25" y1="14.17" x2="82.97" y2="14.17" gradientUnits="userSpaceOnUse"><stop offset="0" stop-color="#12c2e9"/><stop offset="0.5" stop-color="#c471ed"/><stop offset="1" stop-color="#f64f59"/></linearGradient><linearGradient id="名称未設定グラデーション_25-2" x1="141.01" y1="50.75" x2="153.73" y2="50.75" xlink:href="#名称未設定グラデーション_25"/><linearGradient id="名称未設定グラデーション_25-3" x1="141.01" y1="80.39" x2="153.73" y2="80.39" xlink:href="#名称未設定グラデーション_25"/></defs><path class="cls-1" d="M160.19,91.73h13.32V9.65H160.19V8h22.32q1.68,0,3.36-.06t3.36-.18q1.68,0,3.36-.06T196,7.61q3.6,0,6.42.12t5.28.42a40.59,40.59,0,0,1,4.68.84q2.22.54,4.74,1.38a43.28,43.28,0,0,1,12.66,6.42,36.36,36.36,0,0,1,8.76,9.3,39.12,39.12,0,0,1,5,11.52,51.85,51.85,0,0,1,1.62,13.08,48.73,48.73,0,0,1-1.92,14.22A40,40,0,0,1,238,76.07a38.37,38.37,0,0,1-7.86,8.4,41.47,41.47,0,0,1-9.66,5.7,37.16,37.16,0,0,1-5.46,2,38.59,38.59,0,0,1-5.28,1.08q-2.7.36-5.94.48t-7.44.12q-1.8,0-3.84-.06t-4.08-.18q-2-.12-4-.18t-3.78-.06h-20.4Zm25.32,0q2,.24,4.74.36t5.94.12a77.9,77.9,0,0,0,8.1-.42A30.72,30.72,0,0,0,212,90a24.58,24.58,0,0,0,6.84-4,25.49,25.49,0,0,0,5.7-6.78A45,45,0,0,0,229.85,66a68.62,68.62,0,0,0,1.5-14.82A76.14,76.14,0,0,0,229.55,34a34.46,34.46,0,0,0-5.94-13.2,27.15,27.15,0,0,0-11-8.46q-6.84-3-16.92-3-3,0-5.46.12l-4.74.24Z"/><path class="cls-1" d="M3.38,39.79h29v1.68H22.58L38.06,79.15,54.14,41.47H44.3V39.79H62.54v1.68H56.06L33.38,95.23,11.54,41.47H3.38Z"/><path class="cls-1" d="M90.91,74.61h1.32a43.52,43.52,0,0,0,2.16,5.82,20.4,20.4,0,0,0,3.54,5.4,17.45,17.45,0,0,0,5.46,4,17.85,17.85,0,0,0,7.8,1.56A10.82,10.82,0,0,0,118,89.07q3-2.34,3-7.62,0-4.56-2.34-6.42a18.32,18.32,0,0,0-5.46-2.94l-9.36-3.24c-1.2-.4-2.51-.9-3.9-1.5a14.14,14.14,0,0,1-3.9-2.52,12.29,12.29,0,0,1-2.94-4.14A15.65,15.65,0,0,1,92,54.21,14.64,14.64,0,0,1,93.31,48a15.9,15.9,0,0,1,9.06-8.4,19.35,19.35,0,0,1,6.9-1.2,17.52,17.52,0,0,1,4.26.42q1.62.42,2.82.84c.8.28,1.51.56,2.16.84a5.63,5.63,0,0,0,2.28.42,2.11,2.11,0,0,0,1.92-1H124V53.61h-1.32a51.58,51.58,0,0,0-1.92-5.1,20.38,20.38,0,0,0-2.58-4.38,10.55,10.55,0,0,0-3.72-3,11.84,11.84,0,0,0-5.22-1.08c-3.84,0-6.83.86-8.94,2.58a8.43,8.43,0,0,0-3.18,6.9,6.76,6.76,0,0,0,2.7,5.82,28.17,28.17,0,0,0,8,3.66l8.76,2.88a25.25,25.25,0,0,1,9.24,5.28,11.57,11.57,0,0,1,3.6,8.88,16.85,16.85,0,0,1-1.26,6.36,15.43,15.43,0,0,1-3.72,5.46,19.07,19.07,0,0,1-6,3.78,21.36,21.36,0,0,1-8.1,1.44,20.55,20.55,0,0,1-4.86-.54q-2.22-.54-4.08-1.14C100.16,91,99,90.63,98,90.27a8.86,8.86,0,0,0-2.88-.54,2.81,2.81,0,0,0-1.92.54,4.77,4.77,0,0,0-1,1.14H90.91Z"/><path class="cls-1" d="M62.21,89.59h9.24V41.47H62.21V39.79H81.77v49.8H91v1.68H62.21Z"/><path class="cls-1" d="M367,90a16.44,16.44,0,0,1-3.72,2.1A13.74,13.74,0,0,1,358,93q-5.76,0-8.34-2.46a13.06,13.06,0,0,1-3.54-6.9h-.24q-.48,1.08-1.32,2.7A10.7,10.7,0,0,1,342,89.41a14.36,14.36,0,0,1-4.62,2.52A22.24,22.24,0,0,1,330,93a23.18,23.18,0,0,1-8-1.14A13.12,13.12,0,0,1,317.3,89a8.18,8.18,0,0,1-2.22-3.78,15.72,15.72,0,0,1-.54-3.9,11.94,11.94,0,0,1,1.68-6.72,12.44,12.44,0,0,1,4.38-4,29,29,0,0,1,6-2.46q3.3-1,6.66-2,4-1.32,6.54-2.28a11.59,11.59,0,0,0,4-2.34,7.18,7.18,0,0,0,2-3.48,23.84,23.84,0,0,0,.54-5.7,33.32,33.32,0,0,0-.36-5.16,10.94,10.94,0,0,0-1.32-3.9,6.13,6.13,0,0,0-2.76-2.46,11.48,11.48,0,0,0-4.8-.84,13.78,13.78,0,0,0-6.54,1.38,4.72,4.72,0,0,0-2.58,4.5,22.43,22.43,0,0,0,.36,4,18.23,18.23,0,0,1,.36,2.94,3.73,3.73,0,0,1-1.2,2.82A4.86,4.86,0,0,1,324,56.71q-4,0-4.92-1.44a6.58,6.58,0,0,1-1-3.72,11.13,11.13,0,0,1,1.2-5,12.7,12.7,0,0,1,3.54-4.26,17.61,17.61,0,0,1,5.88-2.94,27.77,27.77,0,0,1,8.1-1.08,26.78,26.78,0,0,1,9.24,1.38,16,16,0,0,1,6,3.72,13.51,13.51,0,0,1,3.24,5.28,19.78,19.78,0,0,1,1,6.18V84.67q0,3.48,1.08,4.68a4,4,0,0,0,3.12,1.2,8.72,8.72,0,0,0,2.76-.48A10.13,10.13,0,0,0,366,88.63ZM346,61.87h-.24q-.24,1.56-4,3.12l-9,3.6A13.12,13.12,0,0,0,326.9,73a11.66,11.66,0,0,0-2,7,20.18,20.18,0,0,0,.36,3.72,9.53,9.53,0,0,0,1.32,3.42,7.33,7.33,0,0,0,2.7,2.46,9.27,9.27,0,0,0,4.5,1,11.17,11.17,0,0,0,6.42-1.68,11,11,0,0,0,3.72-4.2,17.73,17.73,0,0,0,1.68-5.46,38.06,38.06,0,0,0,.42-5.34Z"/><path class="cls-1" d="M280,41.61h9.24V26.13q1,.36,1.8.6a11.86,11.86,0,0,0,2.88.24,10.33,10.33,0,0,0,3.12-.42,7.83,7.83,0,0,0,2.52-1.38V41.61h17v1.68h-17V82.53a18.64,18.64,0,0,0,.66,5.46A8.25,8.25,0,0,0,302,91.23a5.21,5.21,0,0,0,2.34,1.5,8.93,8.93,0,0,0,2.46.36A8.44,8.44,0,0,0,313.54,90a14.82,14.82,0,0,0,3.3-7l1.68.6a27.92,27.92,0,0,1-1.08,3.48,12.14,12.14,0,0,1-2.22,3.66,11.66,11.66,0,0,1-3.9,2.88,14,14,0,0,1-6,1.14q-9,0-12.54-3.48t-3.54-9.84V43.29H280Z"/><path class="cls-1" d="M292.69,91.77a16.44,16.44,0,0,1-3.72,2.1,13.74,13.74,0,0,1-5.28.9q-5.76,0-8.34-2.46a13.06,13.06,0,0,1-3.54-6.9h-.24q-.48,1.08-1.32,2.7a10.7,10.7,0,0,1-2.58,3.12,14.36,14.36,0,0,1-4.62,2.52,22.24,22.24,0,0,1-7.32,1,23.18,23.18,0,0,1-8-1.14A13.12,13.12,0,0,1,243,90.81,8.18,8.18,0,0,1,240.79,87a15.72,15.72,0,0,1-.54-3.9,11.94,11.94,0,0,1,1.68-6.72,12.44,12.44,0,0,1,4.38-4,29,29,0,0,1,6-2.46q3.3-1,6.66-2,4-1.32,6.54-2.28a11.59,11.59,0,0,0,4-2.34,7.18,7.18,0,0,0,2-3.48,23.84,23.84,0,0,0,.54-5.7,33.32,33.32,0,0,0-.36-5.16,10.94,10.94,0,0,0-1.32-3.9,6.13,6.13,0,0,0-2.76-2.46,11.48,11.48,0,0,0-4.8-.84,13.78,13.78,0,0,0-6.54,1.38,4.72,4.72,0,0,0-2.58,4.5,22.43,22.43,0,0,0,.36,4,18.23,18.23,0,0,1,.36,2.94,3.73,3.73,0,0,1-1.2,2.82,4.86,4.86,0,0,1-3.48,1.14q-4,0-4.92-1.44a6.58,6.58,0,0,1-1-3.72,11.13,11.13,0,0,1,1.2-5,12.7,12.7,0,0,1,3.54-4.26,17.61,17.61,0,0,1,5.88-2.94,27.77,27.77,0,0,1,8.1-1.08,26.78,26.78,0,0,1,9.24,1.38,16,16,0,0,1,6,3.72,13.51,13.51,0,0,1,3.24,5.28,19.78,19.78,0,0,1,1,6.18V86.49q0,3.48,1.08,4.68a4,4,0,0,0,3.12,1.2,8.72,8.72,0,0,0,2.76-.48,10.13,10.13,0,0,0,2.76-1.44Zm-21-28.08h-.24q-.24,1.56-4,3.12l-9,3.6a13.12,13.12,0,0,0-5.88,4.38,11.66,11.66,0,0,0-2,7,20.18,20.18,0,0,0,.36,3.72A9.53,9.53,0,0,0,252.25,89a7.33,7.33,0,0,0,2.7,2.46,9.27,9.27,0,0,0,4.5,1,11.17,11.17,0,0,0,6.42-1.68,11,11,0,0,0,3.72-4.2A17.73,17.73,0,0,0,271.27,81a38.06,38.06,0,0,0,.42-5.34Z"/><path class="cls-2" d="M70.25,14.17a6.36,6.36,0,1,1,12.72,0,6.36,6.36,0,1,1-12.72,0Z"/><path class="cls-3" d="M141,50.75a6.35,6.35,0,1,1,1.86,4.5A6.13,6.13,0,0,1,141,50.75Z"/><path class="cls-4" d="M141,80.39a6.35,6.35,0,1,1,1.86,4.5A6.13,6.13,0,0,1,141,80.39Z"/></svg>